<!DOCTYPE svg PUBLIC "-//W3C//DTD SVG 1.1//EN" "http://www.w3.org/Graphics/SVG/1.1/DTD/svg11.dtd">

<!-- Uploaded to: SVG Repo, www.svgrepo.com, Transformed by: SVG Repo Mixer Tools -->
<svg version="1.1" id="Layer_1" xmlns="http://www.w3.org/2000/svg" xmlns:xlink="http://www.w3.org/1999/xlink" viewBox="0 0 480 480" xml:space="preserve" width="64px" height="64px" fill="#666666" transform="matrix(-1, 0, 0, 1, 0, 0)">

<g id="SVGRepo_bgCarrier" stroke-width="0"/>

<g id="SVGRepo_tracerCarrier" stroke-linecap="round" stroke-linejoin="round"/>

<g id="SVGRepo_iconCarrier"> <rect x="320" y="328" style="fill:#FFFFFF;" width="48" height="136"/> 
<path style="fill:#FFFFFF;" d="M240,392.304h-59.68c-11.224,0-20.32-8.968-20.32-20.184v-0.032c0-8.256,4.992-15.688,12.632-18.808 l62.64-25.608c3.072-1.256,6.464-1.528,9.696-0.768L320,344.44l-0.536,109.224l-75.792,17.912c-2.416,0.568-4.928,0.568-7.344,0 L104,440.44l-88.872-59.248C10.672,378.224,8,373.224,8,367.88V350c0-10.736,10.36-18.424,20.632-15.312L160,374.376"/> 
<path style="fill:#666666;" d="M472,472h-88c-8.84,0-16-7.16-16-16V336c0-8.84,7.16-16,16-16h88V472z"/> <path d="M472,312h-88c-7.064,0-13.36,3.128-17.76,8H320c-4.416,0-8,3.576-8,8v6.352l-65.224-15.248 c-4.896-1.128-9.912-0.728-14.528,1.168l-62.64,25.6c-8.096,3.312-14.016,10.008-16.424,18.096l-122.24-36.936 c-7.328-2.216-15.08-0.856-21.256,3.712C3.528,335.304,0,342.328,0,350v17.872c0,8.04,4,15.504,10.688,19.968l88.872,59.248 c0.792,0.528,1.672,0.912,2.608,1.136l132.344,31.144c1.792,0.424,3.632,0.624,5.48,0.624c1.856,0,3.72-0.208,5.52-0.632 L312,463.648V464c0,4.424,3.584,8,8,8h46.24c4.392,4.872,10.696,8,17.76,8h88c4.416,0,8-3.576,8-8V320 C480,315.576,476.416,312,472,312z M311.496,447.328l-69.664,16.456c-1.2,0.304-2.48,0.296-3.672,0.008l-130.92-30.808 l-87.68-58.456c-2.224-1.48-3.56-3.976-3.56-6.656V350c0-2.552,1.176-4.896,3.232-6.424c2.048-1.528,4.624-1.992,7.088-1.24 l127.024,38.232C157.008,391.92,167.72,400,180.32,400H240c4.416,0,8-3.576,8-8s-3.584-8-8-8h-59.68 c-6.792,0-12.32-5.32-12.32-12.064c0-5.024,3.008-9.432,7.664-11.328l62.648-25.56c1.536-0.64,3.216-0.752,4.84-0.368l68.824,16.096 L311.496,447.328z M328,456V336h32v120H328z M464,464h-80c-4.408,0-8-3.584-8-8V336c0-4.416,3.592-8,8-8h80V464z"/> <path d="M433.432,448h-24c-4.416,0-8-3.576-8-8s3.584-8,8-8h24c4.416,0,8,3.576,8,8S437.848,448,433.432,448z"/> 
<polygon style="fill:#CCCCCC;" points="74.496,128 233.424,280.496 392.36,128 "/> <path id="SVGCleanerId_0" d="M233.424,288.496c-2,0-3.992-0.744-5.536-2.224L68.96,133.776c-2.352-2.264-3.104-5.728-1.88-8.76 S71.232,120,74.496,120H392.36c3.264,0,6.2,1.984,7.424,5.016s0.472,6.496-1.88,8.76L238.968,286.272 C237.416,287.76,235.424,288.496,233.424,288.496z M94.384,136l139.04,133.416L372.472,136H94.384z"/> <g> <path id="SVGCleanerId_0_1_" d="M233.424,288.496c-2,0-3.992-0.744-5.536-2.224L68.96,133.776c-2.352-2.264-3.104-5.728-1.88-8.76 S71.232,120,74.496,120H392.36c3.264,0,6.2,1.984,7.424,5.016s0.472,6.496-1.88,8.76L238.968,286.272 C237.416,287.76,235.424,288.496,233.424,288.496z M94.384,136l139.04,133.416L372.472,136H94.384z"/> </g> <path d="M233.424,288.496c-3.24,0-6.16-1.952-7.392-4.944l-62.928-152.496c-1.016-2.472-0.736-5.28,0.744-7.504 c1.488-2.224,3.976-3.552,6.648-3.552H296.36c2.672,0,5.168,1.328,6.648,3.552c1.488,2.216,1.768,5.032,0.744,7.504l-62.936,152.496 C239.584,286.544,236.664,288.496,233.424,288.496z M182.456,136l50.976,123.528L284.4,136H182.456z"/> 
<polygon style="fill:#CCCCCC;" points="113.664,56 74.496,128 153.424,128 "/> 
<polygon style="fill:#CCCCCC;" points="153.664,128 114.496,56 193.424,56 "/> <g>
<polygon style="fill:#CCCCCC;" points="273.664,56 234.496,128 313.432,128 "/> 
<polygon style="fill:#CCCCCC;" points="353.664,56 314.496,128 393.432,128 "/> </g> 
<polygon style="fill:#CCCCCC;" points="313.664,128 274.496,56 353.432,56 "/> 
<polygon style="fill:#CCCCCC;" points="193.664,56 154.496,128 233.424,128 "/> 
<polygon style="fill:#CCCCCC;" points="233.664,128 194.496,56 273.432,56 "/> 
<polygon style="fill:#CCCCCC;" points="193.664,56 154.496,128 233.424,128 "/> <path d="M153.432,136H74.496c-2.824,0-5.432-1.488-6.872-3.912c-1.448-2.424-1.504-5.432-0.152-7.904l39.168-72 c1.392-2.568,4.08-4.168,7-4.176c0.008,0,0.016,0,0.024,0c2.912,0,5.592,1.584,7,4.136l39.768,72 c1.368,2.48,1.328,5.496-0.112,7.928S156.264,136,153.432,136z M87.952,120h51.92l-26.16-47.36L87.952,120z"/> <path d="M153.664,136c-0.008,0-0.016,0-0.024,0c-2.92-0.008-5.608-1.608-7-4.176l-39.168-72c-1.344-2.48-1.296-5.488,0.152-7.904 c1.44-2.432,4.048-3.92,6.872-3.92h78.936c2.832,0,5.456,1.504,6.888,3.936s1.48,5.456,0.112,7.928l-39.768,72 C159.256,134.416,156.568,136,153.664,136z M127.952,64l25.76,47.36L179.872,64H127.952z"/> <path id="SVGCleanerId_1" d="M313.432,136h-78.936c-2.824,0-5.432-1.488-6.872-3.912c-1.448-2.424-1.504-5.432-0.152-7.904 l39.168-72c1.392-2.568,4.08-4.168,7-4.176c0.008,0,0.016,0,0.024,0c2.912,0,5.592,1.584,7,4.136l39.768,72 c1.368,2.48,1.328,5.496-0.112,7.928S316.264,136,313.432,136z M247.952,120h51.92l-26.16-47.36L247.952,120z"/> <path d="M313.664,136c-0.008,0-0.016,0-0.024,0c-2.92-0.008-5.608-1.608-7-4.176l-39.168-72c-1.344-2.48-1.296-5.488,0.152-7.904 c1.44-2.432,4.048-3.92,6.872-3.92h78.936c2.832,0,5.456,1.504,6.888,3.936s1.48,5.456,0.112,7.928l-39.768,72 C319.256,134.416,316.568,136,313.664,136z M287.952,64l25.76,47.36L339.872,64H287.952z"/> <path id="SVGCleanerId_2" d="M233.432,136h-78.936c-2.824,0-5.432-1.488-6.872-3.912c-1.448-2.424-1.504-5.432-0.152-7.904 l39.168-72c1.392-2.568,4.08-4.168,7-4.176c0.008,0,0.016,0,0.024,0c2.912,0,5.592,1.584,7,4.136l39.768,72 c1.368,2.48,1.328,5.496-0.112,7.928S236.264,136,233.432,136z M167.952,120h51.92l-26.16-47.36L167.952,120z"/> <path d="M233.664,136c-0.008,0-0.016,0-0.024,0c-2.92-0.008-5.608-1.608-7-4.176l-39.168-72c-1.344-2.48-1.296-5.488,0.152-7.904 c1.44-2.432,4.048-3.92,6.872-3.92h78.936c2.832,0,5.456,1.504,6.888,3.936s1.48,5.456,0.112,7.928l-39.768,72 C239.256,134.416,236.568,136,233.664,136z M207.952,64l25.76,47.36L259.872,64H207.952z"/> <g> <path id="SVGCleanerId_1_1_" d="M313.432,136h-78.936c-2.824,0-5.432-1.488-6.872-3.912c-1.448-2.424-1.504-5.432-0.152-7.904 l39.168-72c1.392-2.568,4.08-4.168,7-4.176c0.008,0,0.016,0,0.024,0c2.912,0,5.592,1.584,7,4.136l39.768,72 c1.368,2.48,1.328,5.496-0.112,7.928S316.264,136,313.432,136z M247.952,120h51.92l-26.16-47.36L247.952,120z"/> </g> <g> <path id="SVGCleanerId_2_1_" d="M233.432,136h-78.936c-2.824,0-5.432-1.488-6.872-3.912c-1.448-2.424-1.504-5.432-0.152-7.904 l39.168-72c1.392-2.568,4.08-4.168,7-4.176c0.008,0,0.016,0,0.024,0c2.912,0,5.592,1.584,7,4.136l39.768,72 c1.368,2.48,1.328,5.496-0.112,7.928S236.264,136,233.432,136z M167.952,120h51.92l-26.16-47.36L167.952,120z"/> </g> 
<polygon style="fill:#CCCCCC;" points="170.136,128 233.064,280.496 296,128 "/> <path d="M400.432,124.136l-39.768-72c-1.408-2.552-4.096-4.136-7-4.136c-0.008,0-0.016,0-0.024,0c-0.032,0-0.064,0.016-0.096,0.016 c-0.048,0-0.08-0.016-0.112-0.016h-78.936c-0.184,0-0.352,0.056-0.536,0.072c-0.176-0.016-0.352-0.072-0.528-0.072h-78.936 c-0.184,0-0.352,0.056-0.536,0.072c-0.176-0.016-0.352-0.072-0.528-0.072h-78.936c-0.144,0-0.28,0.048-0.424,0.056 C113.928,48.048,113.8,48,113.664,48c-0.008,0-0.016,0-0.024,0c-2.92,0.008-5.608,1.608-7,4.176l-39.168,72 c-0.08,0.152-0.112,0.328-0.184,0.48c-0.056,0.128-0.16,0.224-0.208,0.352c-0.064,0.16-0.064,0.328-0.112,0.48 c-0.144,0.44-0.248,0.888-0.32,1.344c-0.04,0.288-0.088,0.568-0.096,0.864c-0.016,0.464,0.024,0.92,0.088,1.384 c0.04,0.272,0.056,0.536,0.12,0.808c0.12,0.48,0.312,0.936,0.52,1.4c0.104,0.224,0.168,0.464,0.288,0.68 c0.024,0.04,0.024,0.08,0.048,0.112c0.368,0.616,0.808,1.168,1.312,1.656c0.008,0.008,0.016,0.024,0.024,0.032L227.88,286.264 c0.128,0.12,0.288,0.16,0.416,0.272c0.528,0.448,1.104,0.808,1.728,1.112c0.248,0.112,0.464,0.256,0.72,0.344 c0.848,0.304,1.736,0.504,2.672,0.504s1.824-0.2,2.672-0.504c0.248-0.088,0.472-0.224,0.72-0.344c0.624-0.296,1.2-0.664,1.728-1.112 c0.128-0.112,0.296-0.152,0.416-0.272L396.12,135.456c1.72-0.624,3.224-1.776,4.184-3.4 C401.76,129.624,401.8,126.608,400.432,124.136z M182.456,136h51.176h0.024H284.4l-50.976,123.528L182.456,136z M167.216,120 l26.696-48.328L220.2,120h-49.704H167.216z M247.216,120l26.696-48.328L300.2,120h-3.84H247.216z M353.712,72.64l26.16,47.36h-51.92 L353.712,72.64z M339.872,64l-26.16,47.36L287.952,64H339.872z M259.872,64l-26.16,47.36L207.952,64H259.872z M179.872,64 l-26.16,47.36L127.952,64H179.872z M113.712,72.64l26.16,47.36h-51.92L113.712,72.64z M153.432,136h0.2h0.024h11.48l46.384,112.4 L94.384,136H153.432z M255.328,248.4L301.712,136h11.92h0.024h0.832h57.976L255.328,248.4z"/> <path d="M112,248H96v-16c0-4.424-3.584-8-8-8s-8,3.576-8,8v16H64c-4.416,0-8,3.576-8,8s3.584,8,8,8h16v16c0,4.424,3.584,8,8,8 s8-3.576,8-8v-16h16c4.416,0,8-3.576,8-8S116.416,248,112,248z"/> <path d="M452.744,40l5.656-5.656c3.128-3.128,3.128-8.184,0-11.312s-8.184-3.128-11.312,0l-5.656,5.656l-5.656-5.656 c-3.128-3.128-8.184-3.128-11.312,0s-3.128,8.184,0,11.312L430.112,40l-5.656,5.656c-3.128,3.128-3.128,8.184,0,11.312 c1.56,1.56,3.608,2.344,5.656,2.344s4.096-0.784,5.656-2.344l5.656-5.656l5.656,5.656c1.56,1.56,3.608,2.344,5.656,2.344 s4.096-0.784,5.656-2.344c3.128-3.128,3.128-8.184,0-11.312L452.744,40z"/> <path d="M408,272c-13.232,0-24-10.768-24-24s10.768-24,24-24s24,10.768,24,24S421.232,272,408,272z M408,240c-4.408,0-8,3.584-8,8 s3.592,8,8,8s8-3.584,8-8S412.408,240,408,240z"/> <path d="M40,48c-13.232,0-24-10.768-24-24S26.768,0,40,0s24,10.768,24,24S53.232,48,40,48z M40,16c-4.408,0-8,3.584-8,8s3.592,8,8,8 s8-3.584,8-8S44.408,16,40,16z"/> </g>

</svg>